<svg xmlns="http://www.w3.org/2000/svg" width="1024.000000pt" height="555.000000pt" version="1.0" viewBox="0 0 1024.000000 555.000000"><path d="M142 20.2c-6.3 11.1-14 24.5-17.1 29.7-3 5.3-9.2 15.9-13.6 23.6-4.5 7.7-18.1 31.3-30.3 52.5-24 41.4-27.6 48.7-31.7 64.4-2.4 9.2-2.7 11.8-2.7 28.1 0 15.4.3 19.3 2.3 27 4.6 18.1 6.4 21.7 51.6 99.5 5.6 9.6 19.8 34.1 31.5 54.5 11.7 20.3 21.4 37.1 21.5 37.3.3.4 1.3-1.4 12.2-20.3 4.5-7.7 18-31.1 30-52 34.3-59.4 36.1-62.6 38.3-69.3 2.9-9 3.6-20 1.6-29.2-1.5-7-8.4-22.5-12.4-27.8-1.7-2.2-1.7-2.2-7.6 8-3.3 5.7-8 13.9-10.6 18.3-4.7 8.1-9.1 15.7-35.5 61.5-8.1 14-15 25.8-15.3 26.2-.4.4-7.6-11.3-16.1-26s-20.9-36.2-27.6-47.8c-15.5-26.7-15.9-27.5-19.1-38.1-2.1-7.2-2.6-10.9-2.6-20.8-.1-20.9 1.8-26.1 22.8-62.5 19-33.1 40.6-70.5 46.9-81.5 2.8-5 5.8-11 6.7-13.5 6.3-17.3 4.5-34.1-5.8-52.3-3-5.3-5.6-9.7-5.7-9.7s-5.4 9.1-11.7 20.2M904.5 46.1c-49.1 3.8-77.6 24.6-87.2 63.8-1.4 5.6-1.7 15.7-2 64.6-.5 69 .1 76.1 7.8 91.9 8.4 17.2 24.6 27.4 60.5 38.1 38.9 11.6 44.3 14.1 49.2 22.4l2.7 4.6v90l-2.3 4.3c-2.5 4.8-8.2 8.1-13.7 8.2-4.7 0-11.7-4-14-8-1.9-3.4-2-5.4-2.3-49.3-.3-37.9-.5-45.7-1.7-45.7-.7 0-7.6 2.7-15.2 6s-25.9 11.3-40.8 17.7c-14.8 6.4-27.8 12.3-28.8 13.2-1.8 1.5-1.9 3.5-1.4 35.1.5 35.3 1 39.6 5.8 52.6 8.4 22.4 26 38.5 51.2 46.8 16.2 5.2 22.6 6.1 46.7 6.1s29.4-.7 46.5-6.2c19-6.1 34.3-17.1 44.3-31.9 5.3-8 8.5-15.2 11.4-26.1 2.3-8.8 2.3-8.8 2.3-76.3v-67.5l-2.4-9c-3.4-12.9-7.2-19.8-15.5-28.1-11-11-26.2-17.6-68.6-29.9-22.9-6.6-30.7-12.1-33-23.2-.9-4.2-1.1-15.7-.8-41.4.4-33.1.6-35.9 2.5-39.5 2.4-4.9 7.2-7.4 13.9-7.4 5.6 0 10.2 2.4 13.8 7.3 2 2.8 2.1 4.1 2.4 43.3.3 37.9.4 40.4 2.1 40.4.9 0 5.8-1.7 10.7-3.9 27.4-11.9 61.1-26.6 69.7-30.5l5.9-2.6-.5-30.7c-.5-33.8-1.2-39.3-7.7-53-10.5-22.5-31.1-37.2-60.5-43.3-7.8-1.6-34.1-4.3-38.5-3.9-.8.1-6.4.6-12.5 1M662.5 46.6c-42.5 4.6-71 26.2-80.8 61.4-3.6 12.8-3.7 17.9-3.7 169.7 0 126.8.2 151.2 1.5 158.8 6.2 38 29.2 61.1 69.5 69.9 12 2.6 31.8 3.7 46.5 2.5 48.5-3.8 77.8-24.8 88.8-63.8 2-7.4 2.1-9.5 2.4-85.9.3-66.9.2-78.2-1-78.2-.8 0-7.5 2.7-14.8 5.9-7.4 3.3-26.4 11.6-42.4 18.6-15.9 6.9-29.3 13.1-29.7 13.8s-.8 23.9-.8 51.7c0 47.8-.1 50.7-2 54.8-4.9 10.8-22.6 10.8-27.9 0l-2.1-4.4V277.6c0-141.4 0-143.7 2-147.6 2.3-4.5 5-6.7 10.3-8.1 4.6-1.2 11.1.3 14.6 3.4 5.1 4.7 5.1 4.1 5.1 70.5 0 48.4.3 62.2 1.3 63 1.3 1.1.3 1.6 53.2-21.7l34-14.9v-51.3c0-45.6-.2-52.2-1.8-58.3-8.7-34-30.6-54.6-67.4-63.2-9.2-2.2-13.7-2.6-30.8-2.9-11-.1-21.8-.1-24 .1M391.1 51.4c-.8 1-1 60.9-.9 226.7l.3 225.4h168v-87l-40.2-.3-40.3-.2V234c0-178.8 0-181.9-1.9-183-1.3-.6-16.6-1-42.9-1-33.2 0-41.2.3-42.1 1.4"/><path d="M185.4 62.8c-1.1 2-18.1 31.6-37.9 65.7-19.7 34.1-36.8 64.2-38 67-6.6 15-6.4 34 .7 47.9 2.2 4.4 29.6 52.1 38.4 66.9l5.2 8.9 4.2-7.4c2.4-4 7.3-12.5 11-18.8s17-29.4 29.6-51.2c12.6-21.9 23.2-39.4 23.6-39s3.1 5 6.1 10.2c2.9 5.2 8 14 11.2 19.5 9.6 16.6 13.5 29.6 13.5 45 0 15.5-3.9 28.4-13.6 45-10.4 18-12.3 21.9-14 29.4-2.3 10.1-1.5 25.3 1.6 33.6 2.4 6.3 10.8 21.5 11.9 21.5.3 0 1.7-2.2 3.1-4.8s10.5-18.4 20.2-35.2c23.1-40.1 22-38.1 26.1-49 5-13.5 6.7-23.7 6.7-40.5 0-8.8-.6-17.5-1.6-22.6-1.7-9.4-7.2-24.8-11.4-32.4-2.9-5.2-26.5-46.3-48-83.3l-12.3-21.4-1.7 2.9c-.9 1.5-10.6 18.3-21.5 37.3-17.7 30.6-24.4 42.2-40.4 69.8l-4.3 7.4-4.9-8.2-5-8.3 10.7-18.6c5.9-10.2 17.5-30.3 25.7-44.6 8.3-14.3 16.2-28.7 17.7-32 7.8-17.2 6.2-35.7-4.7-54.8-3-5.3-5.6-9.7-5.7-9.7 0 0-1 1.7-2.2 3.8M12.7 244.4c-7 12.2-9 18.4-9.5 30-.5 10.8.7 18 4.3 26.1 1.9 4.3 14.1 25.7 53 93 5.1 8.8 16.8 29 26 45 21.9 38 31.6 54.9 38.4 66.6 3.1 5.2 10.8 18.6 17.1 29.6 6.3 11.1 11.8 19.8 12.1 19.5.4-.4 7.8-13.1 16.5-28.2 16.9-29.6 17.3-30.2 31.6-55 16.3-28.2 17.1-30.4 17.2-46 .1-13-2.1-20.7-9.5-33.3l-5.1-8.9-5.7 9.9c-8.4 14.4-27.7 47.7-37.1 64.1-4.5 7.9-8.4 14.2-8.5 14s-6.4-11.1-14-24.3-21.2-36.8-30.2-52.5c-9.1-15.7-20.1-34.8-24.6-42.5-4.4-7.7-10.1-17.6-12.7-22-5.9-10.1-12.2-21-35-60.5-9.9-17.3-18.4-31.8-18.8-32.2s-2.9 3-5.5 7.6"/></svg>